<svg width="30" height="31" viewBox="0 0 30 31" fill="none" xmlns="http://www.w3.org/2000/svg">
<g id="bmw 1" clip-path="url(#clip0_34340_4169)">
<path id="Vector" d="M15 0.500366C6.71607 0.500366 0 7.21579 0 15.5C0 23.7842 6.71607 30.4998 15 30.4998C23.2846 30.4998 30 23.7842 30 15.5C30 7.21579 23.2846 0.500366 15 0.500366ZM15 29.7497C7.12982 29.7497 0.750652 23.37 0.750652 15.5C0.750652 7.63019 7.12982 1.25016 15 1.25016C22.8702 1.25016 29.2499 7.63016 29.2499 15.5C29.2499 23.37 22.8702 29.7497 15 29.7497Z" fill="url(#paint0_linear_34340_4169)"/>
<path id="Vector_2" d="M29.3574 15.5C29.3574 23.4286 22.9288 29.857 15 29.857C7.07125 29.857 0.643311 23.4286 0.643311 15.5C0.643311 7.57088 7.07125 1.14294 15 1.14294C22.9288 1.14294 29.3574 7.57088 29.3574 15.5Z" fill="#333333"/>
<path id="Vector_3" d="M29.2499 15.5C29.2499 23.37 22.8703 29.7496 15.0001 29.7496C7.1299 29.7496 0.750732 23.37 0.750732 15.5C0.750732 7.63015 7.1299 1.25012 15.0001 1.25012C22.8703 1.25012 29.2499 7.63015 29.2499 15.5Z" fill="url(#paint1_radial_34340_4169)"/>
<path id="Vector_4" d="M24.5535 15.5001C24.5535 20.7761 20.2762 25.0531 15.0001 25.0531C9.72376 25.0531 5.44653 20.7762 5.44653 15.5001C5.44653 10.2238 9.72376 5.94666 15.0001 5.94666C20.2762 5.94663 24.5535 10.2238 24.5535 15.5001Z" fill="url(#paint2_linear_34340_4169)"/>
<path id="Vector_5" d="M15.3828 5.68845L16.3752 3.05822V5.68845H17.1289V1.92151H15.9962L14.9659 4.61859H14.9757L13.9455 1.92151H12.8127V5.68845H13.5665V3.05822L14.5589 5.68845H15.3828ZM25.7266 7.37756L24.4388 9.25521L26.4615 8.2604L27.0101 8.91831L23.8267 10.5167L23.1835 9.73798L24.4175 7.87743L24.4102 7.86825L22.3576 8.74678L21.707 7.97325L23.8535 5.13092L24.4023 5.78918L23.0582 7.59913L25.1383 6.67138L25.7266 7.37756Z" fill="#131A34"/>
<path id="Vector_6" d="M8.32864 6.6579C8.02527 6.3634 7.55715 6.27462 7.11709 6.54742C7.20134 6.32952 7.16713 6.10771 7.12262 5.98469C6.93281 5.63956 6.86628 5.59591 6.71129 5.46499C6.20533 5.04108 5.67308 5.40305 5.29285 5.85619L3.45459 8.04698L6.34445 10.4715L8.28286 8.16175C8.72591 7.63385 8.7943 7.11048 8.32864 6.6579ZM4.59029 7.7144L5.69447 6.39853C5.82262 6.24624 6.11193 6.25237 6.29745 6.40862C6.50189 6.58012 6.50251 6.823 6.36519 6.98689L5.27329 8.28755L4.59029 7.7144ZM7.63652 7.93319L6.48543 9.30497L5.76467 8.69918L6.92434 7.31681C7.05556 7.16052 7.34789 7.11506 7.54505 7.28044C7.76712 7.46723 7.78908 7.75134 7.63652 7.93319Z" fill="#333333"/>
<path id="Vector_7" d="M15.3907 5.54282L16.3831 2.91265V5.54282H17.1369V1.77588H16.004L14.9738 4.47287H14.9836L13.9534 1.77588H12.8206V5.54282H13.5743V2.91265L14.5668 5.54282H15.3907Z" fill="url(#paint3_radial_34340_4169)"/>
<path id="Vector_8" d="M25.7338 7.12478L24.4466 9.00249L26.4692 8.00736L27.0173 8.66559L23.8344 10.264L23.1911 9.48496L24.4252 7.62465L24.418 7.61521L22.3647 8.49409L21.7148 7.72018L23.8613 4.87817L24.41 5.53617L23.0661 7.34608L25.1454 6.41869L25.7338 7.12478Z" fill="url(#paint4_radial_34340_4169)"/>
<path id="Vector_9" d="M8.19372 6.58379C7.891 6.2893 7.42226 6.20046 6.98285 6.47302C7.06642 6.25509 7.03227 6.03326 6.98776 5.91086C6.79791 5.56514 6.73201 5.52208 6.57572 5.39089C6.06978 4.96672 5.53819 5.32889 5.15855 5.78245L3.31958 7.97288L6.20953 10.3974L8.1479 8.08732C8.59045 7.55939 8.65938 7.03638 8.19372 6.58379ZM4.45552 7.64024L5.55958 6.3247C5.68719 6.17214 5.97644 6.17824 6.16259 6.33414C6.36705 6.50596 6.36768 6.74914 6.22971 6.91241L5.13849 8.21333L4.45552 7.64024ZM7.50225 7.85903L6.35116 9.23077L5.62913 8.62498L6.78942 7.24232C6.92064 7.08639 7.21235 7.0409 7.4095 7.20633C7.63285 7.39337 7.65484 7.67688 7.50225 7.85903Z" fill="url(#paint5_radial_34340_4169)"/>
<path id="Vector_10" d="M5.76465 15.5002C5.76465 10.3994 9.89967 6.2644 15.0001 6.2644C20.1012 6.2644 24.2356 10.3994 24.2356 15.5002C24.2356 20.6007 20.1012 24.7356 15.0001 24.7356C9.89961 24.7356 5.76465 20.6007 5.76465 15.5002Z" fill="url(#paint6_radial_34340_4169)"/>
<path id="Vector_11" d="M6.03003 15.5001C6.03003 10.5461 10.046 6.52979 15 6.52979C19.9541 6.52979 23.9706 10.5461 23.9706 15.5001C23.9706 20.4541 19.954 24.4704 15 24.4704C10.046 24.4704 6.03003 20.4541 6.03003 15.5001Z" fill="url(#paint7_radial_34340_4169)"/>
<path id="Vector_12" d="M6.01611 15.5001H15.0001V6.51611C10.0381 6.51611 6.01611 10.5382 6.01611 15.5001Z" fill="url(#paint8_radial_34340_4169)"/>
<path id="Vector_13" d="M15 15.5001V24.4842C19.9619 24.4842 23.984 20.4614 23.984 15.5001H15Z" fill="url(#paint9_radial_34340_4169)"/>
<path id="Vector_14" d="M24.0586 15.3405H15.1594V6.44128H14.8408V15.3405H5.94165V15.6591H14.8408V24.5585H15.1594V15.6591H24.0586V15.3405Z" fill="url(#paint10_radial_34340_4169)"/>
<path id="Vector_15" d="M15.1592 6.69338C19.8985 6.77767 23.7228 10.6016 23.8076 15.3405H23.9662C23.8815 10.5137 19.9863 6.61807 15.1592 6.53381L15.1592 6.69338Z" fill="url(#paint11_linear_34340_4169)"/>
<path id="Vector_16" d="M6.17713 15.3393C6.26132 10.594 10.0911 6.76449 14.8365 6.67993V6.52063C10.0027 6.60515 6.10267 10.506 6.01782 15.3393L6.17713 15.3393Z" fill="#C2D7E8"/>
<path id="Vector_17" d="M14.8406 24.3068C10.1014 24.2226 6.27719 20.3984 6.19294 15.6592H6.03369C6.11848 20.4862 10.0136 24.382 14.8407 24.4662L14.8406 24.3068Z" fill="url(#paint12_linear_34340_4169)"/>
<path id="Vector_18" d="M23.8078 15.6592C23.7229 20.3984 19.8986 24.2226 15.1594 24.3068V24.4662C19.9865 24.382 23.8822 20.4863 23.9664 15.6592H23.8078Z" fill="#12404F"/>
<path id="Vector_19" d="M14.6706 6.52075V15.1657H6.02588V15.3363H14.8408V6.52075H14.6706Z" fill="url(#paint13_linear_34340_4169)"/>
<path id="Vector_20" d="M14.6558 24.3825V15.8415H6.09717V15.6731H14.8242V24.3825H14.6558Z" fill="url(#paint14_linear_34340_4169)"/>
<path id="Vector_21" d="M15.3419 24.3825V15.8415H23.8828V15.6731H15.1741V24.3825H15.3419Z" fill="url(#paint15_linear_34340_4169)"/>
<path id="Vector_22" d="M15.3419 6.59705V15.138H23.8828V15.3061H15.1741V6.59705H15.3419Z" fill="url(#paint16_linear_34340_4169)"/>
</g>
<defs>
<linearGradient id="paint0_linear_34340_4169" x1="-2.19576" y1="-1.11689" x2="29.6311" y2="29.6383" gradientUnits="userSpaceOnUse">
<stop stop-color="#DFF4FF"/>
<stop offset="0.098" stop-color="#D6EAF5"/>
<stop offset="0.268" stop-color="#BFD0D9"/>
<stop offset="0.488" stop-color="#98A5AC"/>
<stop offset="0.747" stop-color="#646B6E"/>
<stop offset="1" stop-color="#2B2B2B"/>
</linearGradient>
<radialGradient id="paint1_radial_34340_4169" cx="0" cy="0" r="1" gradientUnits="userSpaceOnUse" gradientTransform="translate(-0.186866 1.49244) scale(21.3109 21.3109)">
<stop stop-color="white"/>
<stop offset="0.306" stop-color="#A8A8A8"/>
<stop offset="0.646" stop-color="#4F4F4F"/>
<stop offset="0.885" stop-color="#161616"/>
<stop offset="1"/>
</radialGradient>
<linearGradient id="paint2_linear_34340_4169" x1="25.952" y1="26.0832" x2="5.68162" y2="6.49531" gradientUnits="userSpaceOnUse">
<stop stop-color="#DFF4FF"/>
<stop offset="0.086" stop-color="#D6EAF5"/>
<stop offset="0.233" stop-color="#BED0D9"/>
<stop offset="0.424" stop-color="#96A4AC"/>
<stop offset="0.652" stop-color="#5F686D"/>
<stop offset="0.907" stop-color="#1A1D1E"/>
<stop offset="1"/>
</linearGradient>
<radialGradient id="paint3_radial_34340_4169" cx="0" cy="0" r="1" gradientUnits="userSpaceOnUse" gradientTransform="translate(-4.01429 -0.677825) scale(51.207 51.207)">
<stop stop-color="white"/>
<stop offset="0.31" stop-color="#FDFDFD"/>
<stop offset="0.451" stop-color="#F6F6F6"/>
<stop offset="0.557" stop-color="#E9E9E9"/>
<stop offset="0.646" stop-color="#D7D7D7"/>
<stop offset="0.724" stop-color="#BFBFBF"/>
<stop offset="0.794" stop-color="#A2A2A2"/>
<stop offset="0.859" stop-color="#808080"/>
<stop offset="0.92" stop-color="#575757"/>
<stop offset="0.975" stop-color="#2B2B2B"/>
<stop offset="1" stop-color="#141414"/>
</radialGradient>
<radialGradient id="paint4_radial_34340_4169" cx="0" cy="0" r="1" gradientUnits="userSpaceOnUse" gradientTransform="translate(-4.01666 -0.677781) scale(51.2113 51.2113)">
<stop stop-color="white"/>
<stop offset="0.31" stop-color="#FDFDFD"/>
<stop offset="0.451" stop-color="#F6F6F6"/>
<stop offset="0.557" stop-color="#E9E9E9"/>
<stop offset="0.646" stop-color="#D7D7D7"/>
<stop offset="0.724" stop-color="#BFBFBF"/>
<stop offset="0.794" stop-color="#A2A2A2"/>
<stop offset="0.859" stop-color="#808080"/>
<stop offset="0.92" stop-color="#575757"/>
<stop offset="0.975" stop-color="#2B2B2B"/>
<stop offset="1" stop-color="#141414"/>
</radialGradient>
<radialGradient id="paint5_radial_34340_4169" cx="0" cy="0" r="1" gradientUnits="userSpaceOnUse" gradientTransform="translate(-4.01932 -0.692788) scale(51.2505 51.2505)">
<stop stop-color="white"/>
<stop offset="0.31" stop-color="#FDFDFD"/>
<stop offset="0.451" stop-color="#F6F6F6"/>
<stop offset="0.557" stop-color="#E9E9E9"/>
<stop offset="0.646" stop-color="#D7D7D7"/>
<stop offset="0.724" stop-color="#BFBFBF"/>
<stop offset="0.794" stop-color="#A2A2A2"/>
<stop offset="0.859" stop-color="#808080"/>
<stop offset="0.92" stop-color="#575757"/>
<stop offset="0.975" stop-color="#2B2B2B"/>
<stop offset="1" stop-color="#141414"/>
</radialGradient>
<radialGradient id="paint6_radial_34340_4169" cx="0" cy="0" r="1" gradientUnits="userSpaceOnUse" gradientTransform="translate(5.15694 6.4214) scale(13.812 13.8121)">
<stop stop-color="#E6E6E6"/>
<stop offset="0.104" stop-color="#D6D6D6"/>
<stop offset="0.307" stop-color="#ADADAD"/>
<stop offset="0.588" stop-color="#6C6C6C"/>
<stop offset="0.933" stop-color="#121212"/>
<stop offset="1"/>
</radialGradient>
<radialGradient id="paint7_radial_34340_4169" cx="0" cy="0" r="1" gradientUnits="userSpaceOnUse" gradientTransform="translate(8.93456 8.27903) scale(20.0867 20.0867)">
<stop stop-color="white"/>
<stop offset="0.344" stop-color="#FDFDFD"/>
<stop offset="0.481" stop-color="#F6F6F6"/>
<stop offset="0.582" stop-color="#EAEAEA"/>
<stop offset="0.665" stop-color="#D8D8D8"/>
<stop offset="0.737" stop-color="#C2C2C2"/>
<stop offset="0.802" stop-color="#A6A6A6"/>
<stop offset="0.86" stop-color="#848484"/>
<stop offset="0.913" stop-color="#5F5F5F"/>
<stop offset="0.949" stop-color="#404040"/>
<stop offset="0.957" stop-color="#404040"/>
<stop offset="1"/>
</radialGradient>
<radialGradient id="paint8_radial_34340_4169" cx="0" cy="0" r="1" gradientUnits="userSpaceOnUse" gradientTransform="translate(3.037 0.664938) scale(35.5738 35.5737)">
<stop offset="0.169" stop-color="white"/>
<stop offset="0.196" stop-color="#E0EFF7"/>
<stop offset="0.241" stop-color="#B2D9EC"/>
<stop offset="0.287" stop-color="#8BC5E2"/>
<stop offset="0.335" stop-color="#6BB5DA"/>
<stop offset="0.384" stop-color="#52A9D4"/>
<stop offset="0.436" stop-color="#41A0CF"/>
<stop offset="0.491" stop-color="#369BCD"/>
<stop offset="0.556" stop-color="#3399CC"/>
<stop offset="0.606" stop-color="#3396C8"/>
<stop offset="0.655" stop-color="#328EBC"/>
<stop offset="0.705" stop-color="#3180A8"/>
<stop offset="0.754" stop-color="#2F6D8C"/>
<stop offset="0.803" stop-color="#2D5468"/>
<stop offset="0.851" stop-color="#2A373D"/>
<stop offset="0.871" stop-color="#292929"/>
</radialGradient>
<radialGradient id="paint9_radial_34340_4169" cx="0" cy="0" r="1" gradientUnits="userSpaceOnUse" gradientTransform="translate(3.03687 0.66466) scale(35.5731 35.5731)">
<stop offset="0.169" stop-color="white"/>
<stop offset="0.196" stop-color="#E0EFF7"/>
<stop offset="0.241" stop-color="#B2D9EC"/>
<stop offset="0.287" stop-color="#8BC5E2"/>
<stop offset="0.335" stop-color="#6BB5DA"/>
<stop offset="0.384" stop-color="#52A9D4"/>
<stop offset="0.436" stop-color="#41A0CF"/>
<stop offset="0.491" stop-color="#369BCD"/>
<stop offset="0.556" stop-color="#3399CC"/>
<stop offset="0.606" stop-color="#3396C8"/>
<stop offset="0.655" stop-color="#328EBC"/>
<stop offset="0.705" stop-color="#3180A8"/>
<stop offset="0.754" stop-color="#2F6D8C"/>
<stop offset="0.803" stop-color="#2D5468"/>
<stop offset="0.851" stop-color="#2A373D"/>
<stop offset="0.871" stop-color="#292929"/>
</radialGradient>
<radialGradient id="paint10_radial_34340_4169" cx="0" cy="0" r="1" gradientUnits="userSpaceOnUse" gradientTransform="translate(5.3456 6.59529) scale(13.5473 13.5474)">
<stop stop-color="#E6E6E6"/>
<stop offset="0.104" stop-color="#D6D6D6"/>
<stop offset="0.307" stop-color="#ADADAD"/>
<stop offset="0.588" stop-color="#6C6C6C"/>
<stop offset="0.933" stop-color="#121212"/>
<stop offset="1"/>
</radialGradient>
<linearGradient id="paint11_linear_34340_4169" x1="13.2235" y1="3.21277" x2="26.4349" y2="15.9793" gradientUnits="userSpaceOnUse">
<stop stop-color="#F0F4FF"/>
<stop offset="0.109" stop-color="#EBEFF9"/>
<stop offset="0.247" stop-color="#DCE0EA"/>
<stop offset="0.403" stop-color="#C4C7CF"/>
<stop offset="0.57" stop-color="#A2A4AB"/>
<stop offset="0.747" stop-color="#76777C"/>
<stop offset="0.929" stop-color="#414243"/>
<stop offset="1" stop-color="#2B2B2B"/>
</linearGradient>
<linearGradient id="paint12_linear_34340_4169" x1="2.50034" y1="13.9914" x2="15.7119" y2="26.7581" gradientUnits="userSpaceOnUse">
<stop stop-color="#F0F4FF"/>
<stop offset="0.109" stop-color="#EBEFF9"/>
<stop offset="0.247" stop-color="#DCE0EA"/>
<stop offset="0.403" stop-color="#C4C7CF"/>
<stop offset="0.57" stop-color="#A2A4AB"/>
<stop offset="0.747" stop-color="#76777C"/>
<stop offset="0.929" stop-color="#414243"/>
<stop offset="1" stop-color="#2B2B2B"/>
</linearGradient>
<linearGradient id="paint13_linear_34340_4169" x1="8.89191" y1="9.43898" x2="15.7426" y2="16.059" gradientUnits="userSpaceOnUse">
<stop stop-color="#C2D7E8"/>
<stop offset="0.134" stop-color="#BACFE1"/>
<stop offset="0.343" stop-color="#A4BACD"/>
<stop offset="0.6" stop-color="#8098AC"/>
<stop offset="0.894" stop-color="#4E697F"/>
<stop offset="1" stop-color="#3A566D"/>
</linearGradient>
<linearGradient id="paint14_linear_34340_4169" x1="5.46081" y1="11.061" x2="18.5393" y2="23.6992" gradientUnits="userSpaceOnUse">
<stop stop-color="#F0F4FF"/>
<stop offset="0.097" stop-color="#E8EBF6"/>
<stop offset="0.257" stop-color="#D1D4DD"/>
<stop offset="0.459" stop-color="#ABAEB5"/>
<stop offset="0.695" stop-color="#78797D"/>
<stop offset="0.958" stop-color="#363637"/>
<stop offset="1" stop-color="#2B2B2B"/>
</linearGradient>
<linearGradient id="paint15_linear_34340_4169" x1="15.1006" y1="15.7491" x2="19.6883" y2="20.1823" gradientUnits="userSpaceOnUse">
<stop stop-color="#D9DEF0"/>
<stop offset="0.123" stop-color="#D4DAEC"/>
<stop offset="0.263" stop-color="#C7CFE2"/>
<stop offset="0.411" stop-color="#B0BCD1"/>
<stop offset="0.566" stop-color="#90A1B8"/>
<stop offset="0.725" stop-color="#677F99"/>
<stop offset="0.885" stop-color="#355674"/>
<stop offset="0.972" stop-color="#173D5D"/>
</linearGradient>
<linearGradient id="paint16_linear_34340_4169" x1="10.4077" y1="6.26462" x2="23.4721" y2="18.8891" gradientUnits="userSpaceOnUse">
<stop stop-color="#F0F4FF"/>
<stop offset="0.109" stop-color="#EBEFF9"/>
<stop offset="0.247" stop-color="#DCE0EA"/>
<stop offset="0.403" stop-color="#C4C7CF"/>
<stop offset="0.57" stop-color="#A2A4AB"/>
<stop offset="0.747" stop-color="#76777C"/>
<stop offset="0.929" stop-color="#414243"/>
<stop offset="1" stop-color="#2B2B2B"/>
</linearGradient>
<clipPath id="clip0_34340_4169">
<rect width="30" height="30" fill="white" transform="translate(0 0.5)"/>
</clipPath>
</defs>
</svg>
